<svg version="1.1" viewBox="0 0 1024 1024" xmlns="http://www.w3.org/2000/svg">
 <path d="m489.31 0.42131c-38.277 5.0148-75.441 7.542-113.07 17.699-100.2 27.046-191.4 86.063-257.73 165.59-151.25 181.33-157.36 451.87-12.792 639 32.279 41.783 70.846 78.837 114.42 108.8 50.771 34.916 107.29 60.612 167.11 75.534 62.676 15.635 128.11 19.474 192.12 11.075 162.58-21.331 306.96-121.44 384.94-265.3 37.188-68.61 56.9-145.99 60.308-223.65 10.386-236.68-156.56-456.28-386.21-513.57-46.484-11.595-101.09-21.468-149.1-15.178m-105.07 927.12-121.23-451.29-51.766-192.7-23.13-86.864c69.565-14.327 138.55-36.554 207.13-55.065 72.465-19.56 148.54-33.471 221.14-5.9251 45.666 17.328 84.808 48.738 111.02 89.945 32.958 51.818 45.375 111.27 61.244 169.73 28.54 105.15 79.041 227.67 22.978 332.48-7.778 14.54-16.812 28.394-27.56 40.936-53.375 62.28-127.56 85.145-203.7 106.26-65.21 18.082-130.98 34.184-196.12 52.493m-67.043-660.96 11.583 44.93 19.437 71.887c56.802-31.554 110-72.507 164.1-108.5 19.401-12.905 38.971-29.327 60.038-39.272v-1.9969c-66.987-29.628-147.45 4.3661-213.14 22.117-13.723 3.7085-27.939 8.9374-42.027 10.832m103.07 137.78v0.99843l179.11 15.146 85.054 6.8196c-14.957-52.59-23.507-107.44-56.036-152.76l-22.014 12.556-44.028 27.7-142.09 89.541m-53.034 49.922 43.027 160.75 58.037-40.217 137.09-95.57-23.015-3.2804-58.037-5.875-107.07-10.982-50.032-4.8234m330.21 24.961-119.08 82.896-98.062 67.868v0.99843c60.592 0 121.55 4.7957 182.12 7.0252 15.68 0.57722 31.324 1.9597 47.031 1.9607 3.7559 2.4e-4 12.371 2.1642 15.421-0.0423 2.849-2.0612 2.5487-7.861 2.5866-10.94 0.11134-9.0459 0.36205-17.898-0.0355-26.958-1.2854-29.29-11.738-58.82-19.549-86.864-3.107-11.155-4.3819-26.062-10.431-35.944m-268.17 206.68 31.02 115.82c23.688-1.0305 50.202-12.21 73.047-18.547 56.048-15.545 132.29-26.361 166.11-80.299-8.6086-2.539-19.048-1.4733-28.018-2.0862-21.005-1.4353-42.034-2.5584-63.04-3.9938-59.363-4.0563-119.59-10.893-179.11-10.893z" fill="#019993"/>
</svg>
